<svg width="28" height="28" viewBox="0 0 28 28" fill="none" xmlns="http://www.w3.org/2000/svg">
<path fill-rule="evenodd" clip-rule="evenodd" d="M22 20.4V14.8H20.4V20.4H7.6V7.6H13.2V6H7.6C6.71634 6 6 6.71634 6 7.6V20.4C6 21.2836 6.71634 22 7.6 22H20.4C21.2836 22 22 21.2836 22 20.4ZM19.7425 6.57874C19.3758 6.20914 18.8737 6 18.3499 6C17.8267 6 17.3252 6.20866 16.9564 6.5797L10.2613 13.2747C9.66302 13.8018 9.27084 14.5862 9.20268 15.4298L9.20009 18.0018V18.8018H12.5078C13.4152 18.7396 14.2073 18.3436 14.7661 17.699L21.4233 11.0447C21.7926 10.6753 22.0001 10.1744 22.0001 9.65205C22.0001 9.12973 21.7926 8.62879 21.4233 8.25945L19.7425 6.57874ZM12.4511 17.2038C12.8785 17.1736 13.2763 16.9747 13.5957 16.6093L18.4453 11.7597L16.2419 9.55615L11.3568 14.4396C11.0327 14.7263 10.8322 15.1274 10.7999 15.4942V17.2023L12.4511 17.2038ZM17.3734 8.42497L19.5767 10.6283L20.2917 9.91328C20.361 9.844 20.3999 9.75003 20.3999 9.65205C20.3999 9.55407 20.361 9.4601 20.2917 9.39081L18.6088 7.70787C18.5403 7.63883 18.447 7.59999 18.3498 7.59999C18.2525 7.59999 18.1593 7.63883 18.0908 7.70787L17.3734 8.42497Z" fill="#758269"/>
</svg>
