<svg width="20" height="20" viewBox="0 0 20 20" fill="none" xmlns="http://www.w3.org/2000/svg">
<path d="M17.9249 9.79572C17.8842 9.69005 17.8192 9.5925 17.7379 9.51121L14.657 6.43031C14.3156 6.08889 13.7547 6.08889 13.4133 6.43031C13.0719 6.77173 13.0719 7.33263 13.4133 7.67405L14.9903 9.25108H8.89356C8.40582 9.25108 8.01562 9.6494 8.01562 10.129C8.01562 10.6086 8.41395 11.0069 8.89356 11.0069H14.9903L13.4133 12.584C13.0719 12.9254 13.0719 13.4863 13.4133 13.8277C13.584 13.9984 13.8116 14.0878 14.0392 14.0878C14.2668 14.0878 14.4863 13.9984 14.6652 13.8277L17.7461 10.7468C17.8273 10.6655 17.8924 10.568 17.933 10.4623C18.0224 10.2509 18.0224 10.0071 17.933 9.78759L17.9249 9.79572Z" fill="#141712"/>
<path d="M10.9177 2.8129C10.9177 2.36581 10.5519 2 10.1048 2H4.21935C3.54464 2 3 2.54464 3 3.21935V17.0387C3 17.7134 3.54464 18.258 4.21935 18.258H10.1129C10.56 18.258 10.9258 17.8922 10.9258 17.4451C10.9258 16.998 10.56 16.6322 10.1129 16.6322H5.03225C4.80464 16.6322 4.6258 16.4534 4.6258 16.2258V4.03225C4.6258 3.80464 4.80464 3.6258 5.03225 3.6258H10.1129C10.56 3.6258 10.9258 3.26 10.9258 2.8129H10.9177Z" fill="#141712"/>
</svg>
