<svg width="12" height="14" viewBox="0 0 12 14" fill="none" xmlns="http://www.w3.org/2000/svg">
<path fill-rule="evenodd" clip-rule="evenodd" d="M4.2 0H7.8C8.46274 0 9 0.537258 9 1.2V1.80003H10.8C11.4627 1.80003 12 2.31739 12 2.95559V4.11115C12 4.74935 11.4627 5.26671 10.8 5.26671H10.7595L10.1999 12.2481C10.1999 12.9395 9.66263 13.5 8.99989 13.5H2.99989C2.33715 13.5 1.79989 12.9395 1.80196 12.3001L1.24012 5.26671H1.2C0.537258 5.26671 0 4.74935 0 4.11115V2.95559C0 2.31739 0.537258 1.80003 1.2 1.80003H3V1.2C3 0.537258 3.53726 0 4.2 0ZM3 3V2.99998H1.20013V4.19998H10.8001V2.99998H9V3H3ZM3.00015 12.2482L2.45204 5.36298H9.54807L9.00222 12.1962L9.00015 12.2482H3.00015ZM7.80013 1.19997V1.79997H4.20013V1.19997H7.80013Z" fill="#758269"/>
</svg>
