<svg width="74" height="24" viewBox="0 0 74 24" fill="none" xmlns="http://www.w3.org/2000/svg">
<path d="M4.779 5.034H7.56V15.582L8.865 16.104V16.5H3.474V16.104L4.779 15.582V5.034ZM10.827 5.547H1.287L2.421 5.241L0.855 8.067L0.288 7.95L0.675 3.783H0.999L2.538 4.656L1.494 4.44H10.62L9.909 4.656L11.448 3.783H11.772L12.15 7.95L11.583 8.067L10.017 5.241L10.827 5.547ZM15.0293 8.481C15.7193 8.481 16.3073 8.628 16.7933 8.922C17.2793 9.21 17.6603 9.627 17.9363 10.173C18.2123 10.713 18.3803 11.367 18.4403 12.135H12.7613L12.7703 11.37L17.2793 11.118L16.0913 11.613C16.0673 11.115 16.0073 10.698 15.9113 10.362C15.8153 10.026 15.6773 9.771 15.4973 9.597C15.3173 9.423 15.0893 9.336 14.8133 9.336C14.5433 9.336 14.3003 9.42 14.0843 9.588C13.8683 9.75 13.6973 10.026 13.5713 10.416C13.4453 10.806 13.3823 11.343 13.3823 12.027C13.3823 12.663 13.4963 13.203 13.7243 13.647C13.9523 14.085 14.2733 14.421 14.6873 14.655C15.1073 14.889 15.5933 15.006 16.1453 15.006C16.3973 15.006 16.6343 14.985 16.8563 14.943C17.0783 14.895 17.2973 14.823 17.5133 14.727C17.7293 14.625 17.9483 14.493 18.1703 14.331L18.4853 14.772C18.1553 15.15 17.8073 15.489 17.4413 15.789C17.0813 16.089 16.6973 16.323 16.2893 16.491C15.8813 16.653 15.4403 16.734 14.9663 16.734C14.1743 16.734 13.4843 16.56 12.8963 16.212C12.3083 15.858 11.8523 15.381 11.5283 14.781C11.2103 14.175 11.0513 13.491 11.0513 12.729C11.0513 11.961 11.2043 11.256 11.5103 10.614C11.8163 9.966 12.2663 9.45 12.8603 9.066C13.4543 8.676 14.1773 8.481 15.0293 8.481ZM24.3042 8.481C24.8802 8.481 25.3422 8.541 25.6902 8.661C26.0382 8.781 26.2902 8.937 26.4462 9.129C26.6082 9.321 26.6892 9.525 26.6892 9.741C26.6892 9.951 26.6382 10.137 26.5362 10.299C26.4402 10.461 26.3052 10.587 26.1312 10.677C25.9632 10.761 25.7742 10.803 25.5642 10.803C25.3602 10.803 25.1712 10.758 24.9972 10.668C24.8292 10.572 24.6732 10.458 24.5292 10.326C24.3852 10.188 24.2472 10.05 24.1152 9.912C23.9832 9.774 23.8482 9.66 23.7102 9.57C23.5722 9.48 23.4282 9.435 23.2782 9.435C23.0202 9.435 22.7772 9.513 22.5492 9.669C22.3272 9.825 22.1442 10.071 22.0002 10.407C21.8622 10.743 21.7932 11.184 21.7932 11.73C21.7932 12.462 21.9012 13.071 22.1172 13.557C22.3332 14.037 22.6392 14.4 23.0352 14.646C23.4312 14.886 23.8992 15.006 24.4392 15.006C24.8052 15.006 25.1442 14.955 25.4562 14.853C25.7682 14.745 26.0892 14.571 26.4192 14.331L26.7432 14.754C26.3652 15.216 25.9872 15.594 25.6092 15.888C25.2312 16.176 24.8472 16.389 24.4572 16.527C24.0732 16.665 23.6802 16.734 23.2782 16.734C22.5042 16.734 21.8322 16.563 21.2622 16.221C20.6922 15.879 20.2482 15.414 19.9302 14.826C19.6182 14.232 19.4622 13.566 19.4622 12.828C19.4622 12.222 19.5702 11.658 19.7862 11.136C20.0022 10.608 20.3172 10.146 20.7312 9.75C21.1452 9.348 21.6522 9.036 22.2522 8.814C22.8522 8.592 23.5362 8.481 24.3042 8.481ZM32.6687 16.14L33.6317 15.726V11.469C33.6317 11.199 33.5837 10.977 33.4877 10.803C33.3917 10.629 33.2477 10.5 33.0557 10.416C32.8637 10.332 32.6177 10.29 32.3177 10.29C31.9577 10.29 31.6277 10.344 31.3277 10.452C31.0337 10.554 30.7967 10.686 30.6167 10.848L30.2477 10.479C30.6317 10.059 30.9767 9.72 31.2827 9.462C31.5947 9.198 31.8857 8.997 32.1557 8.859C32.4317 8.715 32.7017 8.616 32.9657 8.562C33.2297 8.508 33.5057 8.481 33.7937 8.481C34.5857 8.481 35.1707 8.724 35.5487 9.21C35.9327 9.69 36.1247 10.434 36.1247 11.442V15.663L37.2407 16.14V16.5H32.6687V16.14ZM31.9847 16.5H27.2867V16.14L28.3847 15.663V6.033C28.2947 5.913 28.1867 5.802 28.0607 5.7C27.9407 5.592 27.7967 5.49 27.6287 5.394C27.4607 5.292 27.2597 5.19 27.0257 5.088V4.692L30.7517 3.675H31.0397L30.8777 5.592V15.663L31.9847 16.14V16.5ZM40.8267 5.547L40.9437 4.44H44.5167C45.4467 4.44 46.1997 4.566 46.7757 4.818C47.3577 5.064 47.7807 5.403 48.0447 5.835C48.3147 6.261 48.4497 6.744 48.4497 7.284C48.4497 8.028 48.1947 8.655 47.6847 9.165C47.1747 9.675 46.4787 9.969 45.5967 10.047L45.6237 9.912C46.7277 9.972 47.5977 10.287 48.2337 10.857C48.8757 11.421 49.1967 12.138 49.1967 13.008C49.1967 13.674 49.0347 14.271 48.7107 14.799C48.3927 15.327 47.8917 15.744 47.2077 16.05C46.5297 16.35 45.6417 16.5 44.5437 16.5H40.9527L40.8087 15.393H43.6527C44.1987 15.393 44.6667 15.309 45.0567 15.141C45.4467 14.967 45.7467 14.7 45.9567 14.34C46.1667 13.974 46.2717 13.509 46.2717 12.945C46.2717 12.495 46.1817 12.099 46.0017 11.757C45.8217 11.409 45.5457 11.139 45.1737 10.947C44.8017 10.749 44.3187 10.65 43.7247 10.65H40.7997L40.8267 9.552H43.6437C44.2617 9.552 44.7507 9.378 45.1107 9.03C45.4707 8.682 45.6507 8.163 45.6507 7.473C45.6507 7.089 45.5697 6.753 45.4077 6.465C45.2517 6.177 45.0087 5.952 44.6787 5.79C44.3547 5.628 43.9437 5.547 43.4457 5.547H40.8267ZM38.0007 16.5V16.104L39.3057 15.582V5.358L38.0007 4.836V4.44H42.0867V16.5H38.0007ZM53.5977 15.663L54.7047 16.14V16.5H50.0067V16.14L51.1047 15.663V6.033C51.0147 5.913 50.9067 5.802 50.7807 5.7C50.6607 5.592 50.5167 5.49 50.3487 5.394C50.1807 5.292 49.9797 5.19 49.7457 5.088V4.692L53.4717 3.675H53.7597L53.5977 5.592V15.663ZM59.7462 15.834C60.0462 15.834 60.3102 15.744 60.5382 15.564C60.7722 15.378 60.9522 15.081 61.0782 14.673C61.2102 14.259 61.2762 13.704 61.2762 13.008C61.2762 12.216 61.2132 11.553 61.0872 11.019C60.9612 10.479 60.7752 10.074 60.5292 9.804C60.2832 9.528 59.9832 9.39 59.6292 9.39C59.3292 9.39 59.0622 9.48 58.8282 9.66C58.6002 9.84 58.4202 10.137 58.2882 10.551C58.1622 10.959 58.0992 11.511 58.0992 12.207C58.0992 12.999 58.1592 13.665 58.2792 14.205C58.4052 14.739 58.5912 15.144 58.8372 15.42C59.0832 15.696 59.3862 15.834 59.7462 15.834ZM59.6202 16.734C58.7622 16.734 58.0212 16.566 57.3972 16.23C56.7792 15.894 56.3022 15.426 55.9662 14.826C55.6362 14.22 55.4712 13.521 55.4712 12.729C55.4712 11.901 55.6512 11.169 56.0112 10.533C56.3772 9.891 56.8812 9.39 57.5232 9.03C58.1652 8.664 58.9092 8.481 59.7552 8.481C60.6132 8.481 61.3512 8.649 61.9692 8.985C62.5932 9.321 63.0702 9.789 63.4002 10.389C63.7362 10.989 63.9042 11.688 63.9042 12.486C63.9042 13.308 63.7212 14.04 63.3552 14.682C62.9892 15.324 62.4852 15.828 61.8432 16.194C61.2012 16.554 60.4602 16.734 59.6202 16.734ZM68.5368 21.27C67.8708 21.27 67.2888 21.222 66.7908 21.126C66.2988 21.036 65.8908 20.904 65.5668 20.73C65.2428 20.556 64.9998 20.349 64.8378 20.109C64.6818 19.875 64.6038 19.614 64.6038 19.326C64.6038 19.098 64.6548 18.888 64.7568 18.696C64.8588 18.504 65.0388 18.324 65.2968 18.156C65.5548 17.994 65.9148 17.838 66.3768 17.688C66.8448 17.544 67.4418 17.403 68.1678 17.265H68.9688L68.9778 17.454C68.2998 17.556 67.7838 17.682 67.4298 17.832C67.0818 17.988 66.8448 18.162 66.7188 18.354C66.5988 18.552 66.5388 18.768 66.5388 19.002C66.5388 19.284 66.6288 19.53 66.8088 19.74C66.9888 19.95 67.2558 20.112 67.6098 20.226C67.9698 20.346 68.4228 20.406 68.9688 20.406C69.4968 20.406 69.9528 20.343 70.3368 20.217C70.7208 20.091 71.0148 19.92 71.2188 19.704C71.4288 19.488 71.5338 19.257 71.5338 19.011C71.5338 18.825 71.4828 18.666 71.3808 18.534C71.2848 18.408 71.1168 18.297 70.8768 18.201C70.6368 18.111 70.3038 18.033 69.8778 17.967C69.4518 17.901 68.9148 17.841 68.2668 17.787C67.6188 17.727 67.0908 17.634 66.6828 17.508C66.2808 17.382 65.9718 17.226 65.7558 17.04C65.5398 16.854 65.3928 16.65 65.3148 16.428C65.2368 16.2 65.2008 15.96 65.2068 15.708C65.2248 15.192 65.4348 14.775 65.8368 14.457C66.2388 14.133 66.8208 13.914 67.5828 13.8L67.9338 14.133C67.5738 14.175 67.3218 14.256 67.1778 14.376C67.0398 14.49 66.9708 14.64 66.9708 14.826C66.9708 14.958 67.0038 15.072 67.0698 15.168C67.1358 15.258 67.2618 15.336 67.4478 15.402C67.6338 15.468 67.9008 15.522 68.2488 15.564C68.6028 15.606 69.0618 15.645 69.6258 15.681C70.2618 15.723 70.8078 15.798 71.2638 15.906C71.7258 16.008 72.1068 16.155 72.4068 16.347C72.7068 16.533 72.9288 16.767 73.0728 17.049C73.2168 17.331 73.2888 17.667 73.2888 18.057C73.2948 18.657 73.1118 19.2 72.7398 19.686C72.3678 20.172 71.8278 20.556 71.1198 20.838C70.4118 21.126 69.5508 21.27 68.5368 21.27ZM68.5908 14.304C67.8408 14.304 67.1958 14.178 66.6558 13.926C66.1218 13.674 65.7108 13.329 65.4228 12.891C65.1348 12.453 64.9908 11.955 64.9908 11.397C64.9908 10.803 65.1438 10.29 65.4498 9.858C65.7558 9.42 66.1818 9.081 66.7278 8.841C67.2738 8.601 67.9008 8.481 68.6088 8.481C69.2148 8.481 69.7428 8.568 70.1928 8.742C70.6428 8.916 71.0148 9.147 71.3088 9.435C71.6088 9.723 71.8308 10.038 71.9748 10.38C72.1248 10.716 72.1998 11.049 72.1998 11.379C72.1998 11.967 72.0468 12.483 71.7408 12.927C71.4348 13.365 71.0088 13.704 70.4628 13.944C69.9228 14.184 69.2988 14.304 68.5908 14.304ZM68.6628 13.494C68.9988 13.494 69.2628 13.347 69.4548 13.053C69.6468 12.759 69.7428 12.282 69.7428 11.622C69.7428 10.806 69.6288 10.215 69.4008 9.849C69.1788 9.477 68.8878 9.291 68.5278 9.291C68.1978 9.291 67.9338 9.435 67.7358 9.723C67.5438 10.011 67.4478 10.488 67.4478 11.154C67.4478 11.976 67.5588 12.573 67.7808 12.945C68.0088 13.311 68.3028 13.494 68.6628 13.494ZM69.7968 9.165L69.6258 8.607C70.1358 8.673 70.5708 8.7 70.9308 8.688C71.2908 8.676 71.6028 8.649 71.8668 8.607C72.1308 8.559 72.3648 8.511 72.5688 8.463C72.7728 8.415 72.9678 8.391 73.1538 8.391C73.3578 8.391 73.5168 8.454 73.6308 8.58C73.7448 8.7 73.8018 8.892 73.8018 9.156C73.8018 9.51 73.7118 9.771 73.5318 9.939C73.3578 10.107 73.1628 10.191 72.9468 10.191C72.7368 10.191 72.5418 10.122 72.3618 9.984C72.1878 9.846 71.9928 9.696 71.7768 9.534C71.5668 9.366 71.3058 9.237 70.9938 9.147C70.6818 9.057 70.2828 9.063 69.7968 9.165Z" fill="#141712"/>
</svg>
